HIERARCHY
ROOT Hips
{
    OFFSET 0.000000 0.000000 0.000000
    CHANNELS 6 Xposition Yposition Zposition Zrotation Xrotation Yrotation
        JOINT Chest
        {
            OFFSET -0.000000 31.780966 -0.000000
            CHANNELS 3 Zrotation Xrotation Yrotation
            JOINT Neck
            {
                OFFSET -0.000000 23.880144 0.000000
                CHANNELS 3 Zrotation Xrotation Yrotation
                JOINT Head
                {
                    OFFSET -0.000000 10.511110 0.000000
                    CHANNELS 3 Zrotation Xrotation Yrotation
                    End Site
                    {
                        OFFSET -0.000000 16.244448 0.000000
                    }
                }
            }
            JOINT LeftCollar
            {
                OFFSET -0.000000 23.880144 0.000000
                CHANNELS 3 Zrotation Xrotation Yrotation
                JOINT LeftShoulder
                {
                    OFFSET 19.111111 -0.000000 0.000000
                    CHANNELS 3 Zrotation Xrotation Yrotation
                    JOINT LeftElbow
                    {
                        OFFSET 21.456259 0.000000 0.000000
                        CHANNELS 3 Zrotation Xrotation Yrotation
                        JOINT LeftWrist
                        {
                            OFFSET 25.693237 0.000000 0.000000
                            CHANNELS 3 Zrotation Xrotation Yrotation
                            End Site
                            {
                                OFFSET 0.000000 -14.333333 0.000000
                            }
                        }
                    }
                }
            }
            JOINT RightCollar
            {
                OFFSET -0.000000 23.880144 0.000000
                CHANNELS 3 Zrotation Xrotation Yrotation
                JOINT RightShoulder
                {
                    OFFSET -19.111111 0.000000 0.000000
                    CHANNELS 3 Zrotation Xrotation Yrotation
                    JOINT RightElbow
                    {
                        OFFSET -21.456259 0.000000 0.000000
                        CHANNELS 3 Zrotation Xrotation Yrotation
                        JOINT RightWrist
                        {
                            OFFSET -25.693237 0.000000 0.000000
                            CHANNELS 3 Zrotation Xrotation Yrotation
                            End Site
                            {
                                OFFSET -0.000000 -14.333333 0.000000
                            }
                        }
                    }
                }
            }
        }
    JOINT LeftHip
    {
        OFFSET 11.466667 0.000000 0.000000
        CHANNELS 3 Zrotation Xrotation Yrotation
        JOINT LeftKnee
        {
            OFFSET -0.000000 -37.225342 0.000000
            CHANNELS 3 Zrotation Xrotation Yrotation
            JOINT LeftAnkle
            {
                OFFSET -0.000000 -35.678333 0.000000
                CHANNELS 3 Zrotation Xrotation Yrotation
                End Site
                {
                    OFFSET -0.000000 -4.777778 16.244448
                }
            }
        }
    }
    JOINT RightHip
    {
        OFFSET -11.466667 0.000000 0.000000
        CHANNELS 3 Zrotation Xrotation Yrotation
        JOINT RightKnee
        {
            OFFSET -0.000000 -37.225342 0.000000
            CHANNELS 3 Zrotation Xrotation Yrotation
            JOINT RightAnkle
            {
                OFFSET -0.000000 -35.678333 0.000000
                CHANNELS 3 Zrotation Xrotation Yrotation
                End Site
                {
                    OFFSET -0.000000 -4.777778 16.244448
                }
            }
        }
    }
}
MOTION
Frames:    9
Frame Time:    0.010000
19.369728    78.794930    39.383640    2.587221    -4.976079    -58.876965    6.388693    4.652403    -4.765860    9.534185    -5.892482    20.281597    -8.787136    -24.335135    17.890257    -5.305491    0.113792    -2.839694    14.858237    7.231932    -42.685387    23.066988    -12.297153    -56.341537    121.302010    -16.941784    -3.115153    10.155561    0.780968    8.722296    13.912600    -5.741689    11.149411    -28.158247    -24.097567    79.347435    -118.110191    3.108697    -32.796463    13.980902    -27.115484    9.422424    -32.778744    53.117638    28.174501    -1.614832    -23.496883    15.247756    -15.925818    -7.803474    -0.430346    7.403736    43.105938    -11.974214    8.363429    -24.939781    -17.962008    
19.208994    79.041763    40.340431    2.845988    -5.007004    -58.833710    6.310079    4.784915    -4.634424    9.599873    -6.079511    20.126028    -8.667953    -24.165760    17.754711    -4.991269    0.127130    -2.506054    14.937384    7.454071    -41.728401    22.445547    -11.856321    -56.253094    121.630310    -16.848505    -3.152080    9.904448    0.762382    8.757104    13.851251    -6.402602    11.247101    -29.031609    -24.362705    78.037788    -118.908180    3.927308    -33.429085    14.516844    -27.670874    9.481475    -30.050335    50.963314    25.457180    -2.668772    -23.854290    15.225267    -16.363241    -6.954182    -0.471049    6.752560    41.749825    -11.878174    9.298141    -24.302330    -17.953421    
19.044716    79.286156    41.331757    3.121800    -5.000235    -58.804974    6.261525    4.821487    -4.487258    9.667978    -6.201665    19.952406    -8.555252    -23.926737    17.609713    -4.727215    0.081973    -2.206146    14.960509    7.799967    -40.799747    21.915510    -11.524703    -56.034367    121.923759    -16.800005    -3.212456    9.660927    0.753085    8.801524    13.805229    -6.986300    11.477444    -29.948275    -24.557777    76.604103    -119.741417    4.823084    -34.015102    15.004369    -28.159031    9.542573    -27.371193    48.686077    22.820980    -3.887016    -24.226852    15.204458    -16.816900    -6.116571    -0.561999    6.130588    40.357750    -11.820242    10.246701    -23.555834    -17.933783    
18.876749    79.521347    42.354523    3.414938    -4.945323    -58.796349    6.249233    4.755030    -4.309459    9.747177    -6.258037    19.762142    -8.460414    -23.631052    17.453203    -4.516877    0.102355    -1.939006    14.930216    8.157649    -39.863140    21.253250    -11.089440    -55.926643    122.371834    -16.621309    -3.275226    9.423697    0.736262    8.855013    13.770494    -7.486241    11.841249    -30.910765    -24.712669    75.045258    -120.577133    5.770908    -34.543167    15.457562    -28.591009    9.618643    -24.770697    46.311607    20.271170    -5.179115    -24.599442    15.226911    -17.272802    -5.317273    -0.670008    5.564914    38.957993    -11.836302    11.203004    -22.701117    -17.912256    
18.704685    79.741341    43.405540    3.722949    -4.836185    -58.810371    6.276777    4.587521    -4.090038    9.845096    -6.256334    19.555984    -8.393526    -23.294214    17.281250    -4.372699    0.053516    -1.701762    14.883169    8.646702    -38.989590    20.757362    -10.808414    -55.668175    122.674400    -16.434475    -3.266126    9.186077    0.733793    8.917680    13.756944    -7.948412    12.327889    -31.868988    -24.783518    73.427605    -121.428787    6.786534    -35.023277    15.886565    -28.975389    9.716873    -22.266813    43.861568    17.814072    -6.421012    -24.954403    15.326567    -17.716576    -4.575397    -0.762253    5.070447    37.577808    -11.945595    12.154813    -21.745081    -17.909132    
18.527943    79.940697    44.481533    4.040348    -4.671609    -58.845234    6.344782    4.329450    -3.822731    9.967023    -6.209049    19.332726    -8.359901    -22.936630    17.089363    -4.296163    0.095635    -1.490962    14.819037    9.108286    -38.128151    20.152416    -10.426237    -55.555141    123.052856    -16.055157    -3.179597    8.948307    0.731021    8.989805    13.765046    -8.385570    12.927263    -32.816429    -24.795204    71.771065    -122.265076    7.846459    -35.458576    16.295769    -29.319347    9.839177    -19.870468    41.358875    15.468168    -7.492527    -25.271418    15.518482    -18.134499    -3.900773    -0.813459    4.647872    36.242561    -12.147310    13.085454    -20.701584    -17.952003    
18.345543    80.114365    45.579510    4.357980    -4.456022    -58.895031    6.449593    3.999038    -3.505576    10.119055    -6.128311    19.091467    -8.361969    -22.582184    16.872826    -4.294566    0.047125    -1.302610    14.769856    9.694700    -37.359219    19.812263    -10.266006    -55.266754    123.165993    -15.638011    -2.928269    8.720038    0.666409    9.074799    13.795131    -8.763235    13.615068    -33.770847    -24.781916    70.079002    -123.058456    8.935891    -35.872551    16.683119    -29.627211    9.982881    -17.590183    38.830025    13.266586    -8.290552    -25.524714    15.802153    -18.514601    -3.292394    -0.808283    4.285620    34.974556    -12.424191    13.977703    -19.590899    -18.069721    
18.155796    80.257591    46.697140    4.662941    -4.199708    -58.950104    6.584108    3.622302    -3.141171    10.301832    -6.035254    18.828123    -8.393509    -22.248182    16.626530    -4.361112    0.028754    -1.135364    14.718249    10.274478    -36.635216    19.451452    -10.055330    -55.108791    123.281944    -15.009727    -2.535170    8.480362    0.662624    9.172316    13.888995    -9.227350    14.376861    -34.573875    -24.615005    68.528656    -123.889786    10.092545    -36.245773    17.040663    -29.898956    10.140493    -15.438627    36.306965    11.253311    -8.730589    -25.682014    16.167616    -18.847294    -2.737958    -0.741147    3.962880    33.792435    -12.749642    14.816508    -18.437746    -18.286108    
17.956184    80.365852    47.832970    4.939465    -3.917638    -58.998432    6.737590    3.228119    -2.735642    10.518755    -5.941740    18.541153    -8.447103    -21.949255    16.348076    -4.486811    0.050869    -0.987990    14.651526    10.813900    -35.959129    19.174273    -9.916134    -54.994667    123.274734    -14.266444    -2.018428    8.241065    0.658444    9.292197    14.029433    -9.727391    15.205297    -35.333088    -24.454084    67.017609    -124.651207    11.217669    -36.560616    17.356121    -30.131145    10.301441    -13.433001    33.830723    9.471740    -8.757496    -25.710653    16.597698    -19.125040    -2.216460    -0.614958    3.652187    32.712135    -13.094131    15.589707    -17.268377    -18.616026    
